<svg viewBox="0 0 400 400" xmlns="http://www.w3.org/2000/svg" fill="none" stroke-linecap="round" stroke-linejoin="round">
<path d="M70,248 C70,210 150,203 210,208 C280,213 340,210 332,256 C326,300 260,322 190,318 C120,314 70,292 70,248 Z" fill="#2A3D2E"/>
<path d="M70,248 C70,210 150,203 210,208 C280,213 340,210 332,256 C326,300 260,322 190,318 C120,314 70,292 70,248 Z" stroke="#A89E88" stroke-width="3" fill="none" opacity="0.65"/>
<path d="M248,258 q16,-7 32,0 t32,0" stroke="#F6EFE2" stroke-width="2" opacity="0.45"/>
<path d="M150,296 q16,-7 32,0 t32,0" stroke="#F6EFE2" stroke-width="2" opacity="0.45"/>
<path d="M244,294 q16,-7 32,0 t32,0" stroke="#F6EFE2" stroke-width="2" opacity="0.45"/>
<path d="M120,230 Q122,218 138,217 L156,218 Q166,221 164,230 Z" fill="#CBB89A" stroke="#2A3D2E" stroke-width="3"/>
<circle cx="129" cy="221" r="2" fill="#2A3D2E"/>
<circle cx="137" cy="221" r="2" fill="#2A3D2E"/>
<path d="M170,230 Q170,219 178,219 Q186,219 186,230 Z" fill="#CBB89A" stroke="#2A3D2E" stroke-width="3"/>
<circle cx="178" cy="225" r="2.8" fill="#F6EFE2" stroke="#2A3D2E" stroke-width="1.4"/>
<circle cx="178" cy="225" r="1.3" fill="#C65D3A"/>
<path d="M190,230 Q190,219 198,219 Q206,219 206,230 Z" fill="#CBB89A" stroke="#2A3D2E" stroke-width="3"/>
<circle cx="198" cy="225" r="2.8" fill="#F6EFE2" stroke="#2A3D2E" stroke-width="1.4"/>
<circle cx="198" cy="225" r="1.3" fill="#C65D3A"/>
<path d="M209,230 L216,218 L223,230 Z" fill="#CBB89A" stroke="#2A3D2E" stroke-width="2.4"/>
<path d="M223,230 L230,219 L237,230 Z" fill="#CBB89A" stroke="#2A3D2E" stroke-width="2.4"/>
<path d="M237,230 L244,221 L251,230 Z" fill="#CBB89A" stroke="#2A3D2E" stroke-width="2.4"/>
<path d="M251,230 L258,223 L265,230 Z" fill="#CBB89A" stroke="#2A3D2E" stroke-width="2.4"/>
<path d="M265,230 L272,225 L279,230 Z" fill="#CBB89A" stroke="#2A3D2E" stroke-width="2.4"/>
<line x1="54" y1="262" x2="54" y2="228" stroke="#C65D3A" stroke-width="6"/>
<path d="M54,228 l-5,-9 10,0 z" fill="#C65D3A"/>
<path d="M45,262 l18,0" stroke="#2A3D2E" stroke-width="2" opacity="0.5"/>
<line x1="196" y1="348" x2="196" y2="316" stroke="#C65D3A" stroke-width="6"/>
<path d="M196,316 l-5,-9 10,0 z" fill="#C65D3A"/>
<path d="M187,348 l18,0" stroke="#2A3D2E" stroke-width="2" opacity="0.5"/>
<line x1="344" y1="262" x2="344" y2="228" stroke="#C65D3A" stroke-width="6"/>
<path d="M344,228 l-5,-9 10,0 z" fill="#C65D3A"/>
<path d="M335,262 l18,0" stroke="#2A3D2E" stroke-width="2" opacity="0.5"/>
</svg>