<svg xmlns="http://www.w3.org/2000/svg" viewBox="0 0 440 440" role="img" aria-label="fairway advisors">
  <defs>
    <radialGradient id="fa-bg" cx="50%" cy="46%" r="66%"><stop offset="0%" stop-color="#f6efe2"/><stop offset="100%" stop-color="#ede4d3"/></radialGradient>
    <radialGradient id="fa-focus" cx="50%" cy="50%" r="50%"><stop offset="0%" stop-color="#f6efe2" stop-opacity=".9"/><stop offset="70%" stop-color="#f6efe2" stop-opacity=".35"/><stop offset="100%" stop-color="#f6efe2" stop-opacity="0"/></radialGradient>
  </defs>
  <circle cx="220" cy="220" r="212" fill="url(#fa-bg)" stroke="#ddd2bd" stroke-width="1.5"/>
  <circle cx="220" cy="220" r="176" fill="none" stroke="#2a3d2e" stroke-width="1" opacity=".26"/>
  <circle cx="220" cy="220" r="120" fill="none" stroke="#2a3d2e" stroke-width="1" opacity=".16"/>
  <circle cx="220" cy="220" r="150" fill="none" stroke="#c65d3a" stroke-width="1.5" stroke-dasharray="2 8" opacity=".9"/>
  <circle cx="220" cy="220" r="112" fill="url(#fa-focus)"/>
  <g stroke="#2a3d2e" stroke-width="1.25" opacity=".45" stroke-linecap="round"><line x1="220" y1="30" x2="220" y2="86"/><line x1="220" y1="354" x2="220" y2="410"/><line x1="30" y1="220" x2="86" y2="220"/><line x1="354" y1="220" x2="410" y2="220"/></g>
  <g stroke="#c65d3a" stroke-width="2.5" stroke-linecap="round" fill="none"><path d="M112 78 h22 M112 78 v22"/><path d="M328 78 h-22 M328 78 v22"/><path d="M112 362 h22 M112 362 v-22"/><path d="M328 362 h-22 M328 362 v-22"/></g>
  <svg x="122" y="171" width="196" height="98" viewBox="0 0 240 120" preserveAspectRatio="xMidYMid meet"><circle cx="75" cy="74" r="6" fill="#000000" opacity="0.6"/><circle cx="75" cy="74" r="4" fill="#000000" opacity="0.8"/><circle cx="84" cy="65" r="3.5" fill="#ffffff" stroke="#a89e88" stroke-width="0.5"/><line x1="75" y1="74" x2="75" y2="35" stroke="#2a3d2e" stroke-width="1.5"/><path d="M 75,35 L 97,43 L 75,51 Z" fill="#c65d3a"/><text x="110" y="58" font-family="'Helvetica Neue',Arial,sans-serif" font-size="32" font-weight="500" letter-spacing="0"><tspan fill="#2a3d2e">f</tspan><tspan fill="#c65d3a">ai</tspan><tspan fill="#2a3d2e">rway</tspan></text><text x="110" y="80" font-family="'Helvetica Neue',Arial,sans-serif" font-size="18" font-weight="300" fill="#7a6f5d" opacity="0.95" textLength="78.92" lengthAdjust="spacing">advisors</text><text x="188.92" y="80" font-family="'Helvetica Neue',Arial,sans-serif" font-size="18" font-weight="300" fill="#c65d3a" opacity="0.95" textLength="22.38" lengthAdjust="spacing">.ai</text></svg>
</svg>
